#N canvas -6 0 1181 980 12;
#X obj 655 831 netsend -u -b;
#X msg 613 536 connect 127.0.0.1 8001;
#X msg 338 492 1;
#X obj 268 548 oscformat -f f play;
#X msg 418 480 1;
#X obj 427 574 oscformat -f f stop;
#X text 441 557 faire c'est assez;
#X text 304 531 faire le party;
#X obj 591 506 oscformat -f f master volume;
#X obj 313 71 comport;
#X msg 252 25 device;
#X msg 462 24 close;
#X msg 314 25 baud 115200 \, open 6;
#X obj 312 98 pdchoco/slip_parse;
#X obj 311 160 list trim;
#X obj 310 187 route bouton angle;
#X obj 310 215 tgl 19 0 empty empty empty 0 -10 0 12 #fcfcfc #000000 #000000 0 1;
#X obj 312 133 oscparse;
#X obj 530 203 nbx 5 17 -1e+37 1e+37 0 0 empty empty empty 0 -10 0 12 #fcfcfc #000000 #000000 0 256;
#X obj 303 663 select 0 1;
#X obj 338 419 bng 19 250 50 0 empty empty empty 0 -10 0 12 #fcfcfc #000000 #000000;
#X obj 386 417 bng 19 250 50 0 empty empty empty 0 -10 0 12 #fcfcfc #000000 #000000;
#X text -7 241 laisse passer quand y a un chnagement;
#X obj 309 261 pdchoco/stream_flip_flop;
#X obj 246 592 change;
#X obj 305 304 change;
#X obj 304 340 tgl 19 0 empty empty empty 0 -10 0 12 #fcfcfc #000000 #000000 0 1;
#X obj 311 381 select 0 1;
#X obj 1031 684 max;
#X obj 857 538 oscformat -f i vkb_midi 0 note 60;
#X text 1166 241 envoie la note 60 du clavier midi;
#X msg 985 469 127;
#X msg 862 468 0;
#X obj 490 443 oscformat -f i vkb_midi 0 cc 31;
#X obj 530 233 * 127;
#X obj 530 268 / 4095;
#X obj 494 313 pdchoco/stream_smooth 0.1 0.1;
#X obj 498 373 nbx 5 17 -1e+37 1e+37 0 0 empty empty empty 0 -10 0 12 #fcfcfc #000000 #000000 0 256;
#X connect 1 0 0 0;
#X connect 2 0 3 0;
#X connect 3 0 0 0;
#X connect 4 0 5 0;
#X connect 5 0 0 0;
#X connect 8 0 0 0;
#X connect 9 0 13 0;
#X connect 10 0 9 0;
#X connect 11 0 9 0;
#X connect 12 0 9 0;
#X connect 13 0 17 0;
#X connect 14 0 15 0;
#X connect 15 0 16 0;
#X connect 15 1 18 0;
#X connect 16 0 23 0;
#X connect 17 0 14 0;
#X connect 18 0 34 0;
#X connect 20 0 2 0;
#X connect 21 0 4 0;
#X connect 23 0 25 0;
#X connect 24 0 19 0;
#X connect 25 0 26 0;
#X connect 26 0 27 0;
#X connect 27 0 20 0;
#X connect 27 1 21 0;
#X connect 29 0 0 0;
#X connect 31 0 29 0;
#X connect 32 0 29 0;
#X connect 33 0 0 0;
#X connect 34 0 35 0;
#X connect 35 0 36 0;
#X connect 36 0 37 0;
#X connect 37 0 33 0;
